<svg width="120" height="120" viewBox="0 0 120 120" fill="none" xmlns="http://www.w3.org/2000/svg">
<path d="M119.259 6.81465C119.259 4.44771 117.34 2.52893 114.973 2.52893H4.28767C1.92073 2.52893 0.00195312 4.44771 0.00195312 6.81465V54.57C0.00195312 57.37 3.38726 58.7722 5.36714 56.7923L27.3057 34.8537C28.9131 33.2463 31.0934 32.3432 33.3667 32.3432H114.973C117.34 32.3432 119.259 30.4245 119.259 28.0575V6.81465Z" fill="#1E1B4B"/>
<path d="M119.258 66.4429C119.258 64.0759 117.339 62.1572 114.973 62.1572H34.1011C31.7341 62.1572 29.8154 64.0759 29.8154 66.4429V114.198C29.8154 116.998 33.2007 118.401 35.1806 116.421L57.1191 94.4819C58.7266 92.8745 60.9069 91.9715 63.1801 91.9715H114.973C117.339 91.9715 119.258 90.0527 119.258 87.6858V66.4429Z" fill="#1E1B4B"/>
</svg>
